<svg xmlns="http://www.w3.org/2000/svg" viewBox="0 0 512 512" role="img" aria-label="Run Timer icon">
  <rect width="512" height="512" rx="120" fill="#0f1115"/>
  <circle cx="180" cy="140" r="44" fill="#38bdf8"/>
  <path d="M224 188c22 0 40 18 40 40v52h66c20 0 36 16 36 36s-16 36-36 36h-98c-22 0-40-18-40-40v-66l-36 32c-14 13-36 12-49-3s-12-37 3-50l78-68c10-9 22-13 36-13z" fill="#22c55e"/>
  <path d="M176 354c19 0 34 15 34 34v36c0 19-15 34-34 34s-34-15-34-34v-36c0-19 15-34 34-34zm176 0c19 0 34 15 34 34v36c0 19-15 34-34 34s-34-15-34-34v-36c0-19 15-34 34-34z" fill="#94a3b8"/>
</svg>
